<svg width="136" height="54" viewBox="0 0 136 54" fill="none" xmlns="http://www.w3.org/2000/svg">
<g clip-path="url(#clip0_403_4230)">
<path fill-rule="evenodd" clip-rule="evenodd" d="M31.1758 38.4725C31.0122 47.0199 24.2213 53.95 15.6433 53.95C7.06525 53.95 0.3322 47.0174 0.110702 38.4725L0.050293 36.1432V17.4663L6.00306 14.7308L5.96531 8.71076L12.0087 5.66438V4.66397L19.3282 1.06348L19.2351 9.8591L25.1526 6.96818L25.1299 19.5147L31.1255 16.852L31.1758 38.475V38.4725Z" fill="#0A1B52" stroke="#0A1B52" stroke-width="0.133214" stroke-miterlimit="22.93"/>
<path fill-rule="evenodd" clip-rule="evenodd" d="M1.75935 18.4115L3.97685 17.376L3.92651 27.6033C3.08834 28.5209 2.36092 29.5389 1.75684 30.6371V18.4115H1.75935Z" fill="#D42027" stroke="#D42027" stroke-width="0.133214" stroke-miterlimit="22.93"/>
<path fill-rule="evenodd" clip-rule="evenodd" d="M3.9771 17.3782L6.17446 16.3828L6.12916 25.6022C5.33378 26.1989 4.59629 26.8684 3.92676 27.603L3.9771 17.3757V17.3782Z" fill="white" stroke="white" stroke-width="0.133214" stroke-miterlimit="22.93"/>
<path fill-rule="evenodd" clip-rule="evenodd" d="M7.61377 9.76025L9.83127 8.53418L9.77086 23.5605C9.02079 23.8588 8.30092 24.2124 7.61377 24.6135V9.75774V9.76025Z" fill="#D42027" stroke="#D42027" stroke-width="0.133214" stroke-miterlimit="22.93"/>
<path fill-rule="evenodd" clip-rule="evenodd" d="M9.83385 8.53488L12.0312 7.35645L11.9683 22.8716C11.2132 23.0497 10.4807 23.2803 9.77344 23.5612L9.83385 8.53488Z" fill="white" stroke="white" stroke-width="0.133214" stroke-miterlimit="22.93"/>
<path fill-rule="evenodd" clip-rule="evenodd" d="M13.3677 5.90283L15.5852 4.67676L15.5122 22.4561C14.7848 22.4611 14.0674 22.5137 13.3677 22.614V5.90283Z" fill="#D42027" stroke="#D42027" stroke-width="0.133214" stroke-miterlimit="22.93"/>
<path fill-rule="evenodd" clip-rule="evenodd" d="M15.5852 4.67355L17.7826 3.49512L17.7045 22.5907C17.0174 22.5005 16.3151 22.4503 15.6028 22.4503C15.5726 22.4503 15.5424 22.4503 15.5122 22.4503L15.5852 4.67104V4.67355Z" fill="white" stroke="white" stroke-width="0.133214" stroke-miterlimit="22.93"/>
<path fill-rule="evenodd" clip-rule="evenodd" d="M19.293 11.8315L21.5105 10.6055L21.4576 23.5707C20.7604 23.2924 20.0355 23.0618 19.293 22.8862V11.834V11.8315Z" fill="#D42027" stroke="#D42027" stroke-width="0.133214" stroke-miterlimit="22.93"/>
<path fill-rule="evenodd" clip-rule="evenodd" d="M21.5104 10.6062L23.7077 9.42773L23.6448 24.6471C22.9476 24.2359 22.2177 23.8748 21.4575 23.5714L21.5104 10.6062Z" fill="white" stroke="white" stroke-width="0.133214" stroke-miterlimit="22.93"/>
<path fill-rule="evenodd" clip-rule="evenodd" d="M25.3487 21.3452L27.5662 20.1191L27.5335 27.8918C26.874 27.1321 26.1416 26.435 25.3462 25.8107V21.3427L25.3487 21.3452Z" fill="#D42027" stroke="#D42027" stroke-width="0.133214" stroke-miterlimit="22.93"/>
<path fill-rule="evenodd" clip-rule="evenodd" d="M27.5659 20.1189L29.7633 18.9404L29.7129 31.1485C29.1214 29.9726 28.389 28.8794 27.5332 27.8915L27.5659 20.1189Z" fill="white" stroke="white" stroke-width="0.133214" stroke-miterlimit="22.93"/>
<path fill-rule="evenodd" clip-rule="evenodd" d="M19.8919 31.3223L20.6067 35.0907L22.935 31.9967L21.8955 35.6925L25.3765 33.8872L22.789 36.7807L26.7307 36.6177L23.1062 38.1346L26.7307 39.649L22.789 39.4886L25.3765 42.3795L21.8955 40.5742L22.935 44.27L20.6067 41.176L19.8919 44.9445L19.1771 41.176L16.8488 44.27L17.8884 40.5742L14.4098 42.3795L16.9973 39.4886L13.0557 39.649L16.6777 38.1346L13.0557 36.6177L16.9973 36.7807L14.4098 33.8872L17.8884 35.6925L16.8488 31.9967L19.1771 35.0907L19.8919 31.3223Z" fill="#FCC40E" stroke="#FCC40E" stroke-width="0.133214" stroke-miterlimit="22.93"/>
<path fill-rule="evenodd" clip-rule="evenodd" d="M14.1408 27.6035C16.7182 27.6035 19.0741 28.6014 20.8713 30.2487C19.565 29.4664 18.0522 29.0176 16.4388 29.0176C11.5155 29.0176 7.52603 33.1873 7.52603 38.3323C7.52603 43.4773 11.518 47.6469 16.4388 47.6469C17.8937 47.6469 19.268 47.2833 20.4812 46.6365C18.7394 48.0807 16.537 48.9432 14.1408 48.9432C8.50012 48.9432 3.9292 44.1668 3.9292 38.2746C3.9292 32.3824 8.50012 27.606 14.1408 27.606V27.6035Z" fill="#FCC40E" stroke="#FCC40E" stroke-width="0.133214" stroke-miterlimit="22.93"/>
<path fill-rule="evenodd" clip-rule="evenodd" d="M36.8013 24.2937V10.7041H41.04L43.5445 19.9711L46.0212 10.7041H50.27V24.2937H47.6548L47.6447 13.5951L44.8886 24.2937H42.1676L39.4241 13.5951L39.414 24.2937H36.7988H36.8013ZM65.6918 24.2937H62.6437L61.4355 21.1997H55.8301L54.6697 24.2937H51.677L57.1037 10.7041H60.0939L65.6918 24.2937ZM60.5193 18.903L58.5761 13.8734L56.6884 18.903H60.5168H60.5193ZM67.2775 24.2937V10.8195H70.1092V21.997H77.1166V24.2937H67.2775ZM91.7128 24.2937H88.6647L87.4565 21.1997H81.8511L80.6907 24.2937H77.698L83.1247 10.7041H86.1149L91.7128 24.2937ZM86.5403 18.903L84.5972 13.8734L82.7094 18.903H86.5378H86.5403ZM95.0957 24.2937H97.9273V18.5946L103.052 10.7067H99.805L96.5883 16.0873L93.2834 10.7067H89.9735L95.0982 18.5771V24.2962L95.0957 24.2937ZM103.704 19.8909L106.455 19.6251C106.621 20.5202 106.953 21.1746 107.457 21.5959C107.96 22.0171 108.64 22.2252 109.496 22.2252C110.399 22.2252 111.084 22.0397 111.542 21.6661C112 21.2925 112.232 20.8562 112.232 20.3573C112.232 20.0338 112.133 19.763 111.942 19.5349C111.751 19.3092 111.411 19.1136 110.93 18.9507C110.601 18.8378 109.853 18.6398 108.683 18.3564C107.177 17.9904 106.118 17.5416 105.511 17.005C104.655 16.2553 104.23 15.3402 104.23 14.262C104.23 13.57 104.431 12.9181 104.832 12.3138C105.234 11.7096 105.813 11.2507 106.571 10.9348C107.328 10.6189 108.24 10.4609 109.314 10.4609C111.061 10.4609 112.38 10.837 113.261 11.5942C114.147 12.3514 114.608 13.3569 114.653 14.618L111.824 14.7133C111.703 14.0113 111.446 13.5073 111.054 13.2014C110.661 12.8955 110.067 12.7401 109.282 12.7401C108.496 12.7401 107.832 12.9056 107.371 13.234C107.074 13.4471 106.926 13.728 106.926 14.0815C106.926 14.4049 107.067 14.6782 107.346 14.9064C107.701 15.1997 108.562 15.5031 109.934 15.8216C111.303 16.135 112.315 16.4634 112.969 16.7994C113.626 17.1379 114.14 17.5967 114.512 18.1809C114.882 18.7651 115.068 19.4872 115.068 20.3447C115.068 21.122 114.847 21.8541 114.401 22.5336C113.956 23.2131 113.327 23.7196 112.514 24.048C111.701 24.379 110.686 24.5445 109.47 24.5445C107.703 24.5445 106.347 24.1483 105.4 23.356C104.454 22.5662 103.89 21.4103 103.706 19.8959L103.704 19.8909ZM117.369 24.2937V10.7041H120.201V24.2937H117.369ZM135.481 24.2937H132.433L131.225 21.1997H125.62L124.459 24.2937H121.467L126.893 10.7041H129.884L135.481 24.2937ZM130.309 18.903L128.366 13.8734L126.478 18.903H130.306H130.309Z" fill="#001A70"/>
<path fill-rule="evenodd" clip-rule="evenodd" d="M36.9727 46.3929V28.6763H42.5L45.7671 40.759L48.9965 28.6763H54.5365V46.3929H51.1259L51.1133 32.4448L47.5215 46.3929H43.975L40.3983 32.4448L40.3857 46.3929H36.9752H36.9727ZM74.64 46.3929H70.6656L69.0924 42.3587H61.783L60.2677 46.3929H56.3663L63.4417 28.6763H67.3406L74.64 46.3929ZM67.8943 39.365L65.3622 32.8084L62.9031 39.365H67.8968H67.8943ZM76.6032 28.6738H83.3136C84.8289 28.6738 85.9817 28.7841 86.7746 29.0123C87.8393 29.3182 88.7555 29.8623 89.5156 30.6446C90.2783 31.4243 90.8572 32.3821 91.2549 33.5154C91.65 34.6462 91.8489 36.0428 91.8489 37.7026C91.8489 39.1619 91.6626 40.4155 91.2901 41.4711C90.837 42.7624 90.1876 43.8054 89.3419 44.6002C88.7051 45.207 87.8443 45.6759 86.762 46.0143C85.9515 46.2651 84.8692 46.3904 83.5125 46.3904H76.6032V28.6738ZM80.2932 31.6675V43.3967H83.0292C84.0511 43.3967 84.7886 43.339 85.2442 43.2287C85.8433 43.0833 86.3341 42.8376 86.7242 42.4916C87.1194 42.1456 87.4365 41.5764 87.6832 40.7841C87.9324 39.9918 88.0557 38.9086 88.0557 37.5371C88.0557 36.1657 87.9324 35.1201 87.6832 34.3855C87.4365 33.6508 87.0892 33.0817 86.6437 32.6705C86.1982 32.2618 85.6343 31.981 84.9472 31.838C84.4387 31.7277 83.4319 31.6701 81.9393 31.6701H80.2932V31.6675ZM111.399 46.3904H107.424L105.851 42.3562H98.5417L97.0264 46.3904H93.125L100.2 28.6738H104.099L111.399 46.3904ZM104.653 39.3625L102.121 32.8059L99.6617 39.3625H104.656H104.653ZM113.362 46.3904V28.6738H116.934L124.434 40.5484V28.6738H127.845V46.3904H124.157L116.772 34.744V46.3904H113.362ZM131.615 46.3904V28.6738H135.305V46.3904H131.615Z" fill="#001A70"/>
</g>
<defs>
<clipPath id="clip0_403_4230">
<rect width="136" height="53.0169" fill="white" transform="translate(0 0.983398)"/>
</clipPath>
</defs>
</svg>
